<?xml version="1.0" encoding="UTF-8"?>
<svg xmlns="http://www.w3.org/2000/svg" xmlns:xlink="http://www.w3.org/1999/xlink" width="32.487" height="53.747" viewBox="0 0 32.487 53.747">
<defs>
<clipPath id="clip-0">
<path clip-rule="nonzero" d="M 10 0 L 32.488281 0 L 32.488281 44 L 10 44 Z M 10 0 "/>
</clipPath>
<clipPath id="clip-1">
<path clip-rule="nonzero" d="M 0 32 L 22 32 L 22 53.746094 L 0 53.746094 Z M 0 32 "/>
</clipPath>
</defs>
<g clip-path="url(#clip-0)">
<path fill="none" stroke-width="1.19553" stroke-linecap="round" stroke-linejoin="round" stroke="rgb(0%, 0%, 0%)" stroke-opacity="1" stroke-miterlimit="10" d="M 0.000625 -0.00065625 L -21.261094 -42.520187 " transform="matrix(1, 0, 0, -1, 31.89, 0.597)"/>
</g>
<g clip-path="url(#clip-1)">
<path fill-rule="nonzero" fill="rgb(0%, 0%, 50.193787%)" fill-opacity="1" d="M 21.261719 43.117188 C 21.261719 37.246094 16.5 32.488281 10.628906 32.488281 C 4.757812 32.488281 0 37.246094 0 43.117188 C 0 48.988281 4.757812 53.746094 10.628906 53.746094 C 16.5 53.746094 21.261719 48.988281 21.261719 43.117188 Z M 21.261719 43.117188 "/>
</g>
</svg>
